<svg width="24" height="24" viewBox="0 0 24 24" fill="none" xmlns="http://www.w3.org/2000/svg">
<path fill-rule="evenodd" clip-rule="evenodd" d="M21 20V7.7086L22 6.7086V20C22 21.1046 21.1045 22 20 22H4C2.8955 22 2 21.1046 2 20V4C2 2.8954 2.8955 2 4 2H17.2805L16.2805 3H4C3.4478 3 3 3.4477 3 4V20C3 20.5523 3.4478 21 4 21H20C20.5522 21 21 20.5523 21 20ZM18.324 2.9983L20.9974 5.6732L21.4427 5.228C22.1813 4.4897 22.1813 3.292 21.4427 2.5542C20.7047 1.8153 19.5078 1.8153 18.7693 2.5542L18.324 2.9983ZM7.8339 16.1676L8.725 12.6018L9.1709 12.1561L11.8442 14.8305L11.3984 15.2757L7.8339 16.1676ZM12.7355 13.9385L20.1063 6.5647L17.4329 3.8903L10.062 11.2641L12.7355 13.9385Z" fill="white" fill-opacity="1"/>
</svg>
