<svg width="24" height="24" viewBox="0 0 24 24" fill="none" xmlns="http://www.w3.org/2000/svg">
<path fill-rule="evenodd" clip-rule="evenodd" d="M7.48729 14.5002L8.47413 9.50019H5.5C4.94772 9.50019 4.5 9.05247 4.5 8.50019C4.5 7.94791 4.94772 7.50019 5.5 7.50019H8.86887L9.89393 2.30656C10.0009 1.76472 10.5268 1.41218 11.0686 1.51912C11.6105 1.62606 11.963 2.15199 11.8561 2.69382L10.9074 7.50019H14.8689L15.8939 2.30656C16.0009 1.76472 16.5268 1.41218 17.0686 1.51912C17.6105 1.62606 17.963 2.15199 17.8561 2.69382L16.9074 7.50019H20C20.5523 7.50019 21 7.94791 21 8.50019C21 9.05247 20.5523 9.50019 20 9.50019H16.5127L15.5259 14.5002H18.5C19.0523 14.5002 19.5 14.9479 19.5 15.5002C19.5 16.0525 19.0523 16.5002 18.5 16.5002H15.1311L14.1061 21.6938C13.9991 22.2357 13.4732 22.5882 12.9314 22.4813C12.3895 22.3743 12.037 21.8484 12.1439 21.3066L13.0926 16.5002H9.13113L8.10607 21.6938C7.99913 22.2357 7.4732 22.5882 6.93137 22.4813C6.38953 22.3743 6.03699 21.8484 6.14393 21.3066L7.09255 16.5002H4.5C3.94772 16.5002 3.5 16.0525 3.5 15.5002C3.5 14.9479 3.94772 14.5002 4.5 14.5002H7.48729ZM9.52587 14.5002H13.4873L14.4741 9.50019H10.5127L9.52587 14.5002Z" fill="white"/>
</svg>
