<svg width="24" height="24" viewBox="0 0 24 24" fill="none" xmlns="http://www.w3.org/2000/svg">
<path d="M8.5 13.5L11 16.51L14.5 12L19 18H5L8.5 13.5Z" fill="white" fill-opacity="1"/>
<path d="M10 11.5C10.8284 11.5 11.5 10.8284 11.5 10C11.5 9.17157 10.8284 8.5 10 8.5C9.17157 8.5 8.5 9.17157 8.5 10C8.5 10.8284 9.17157 11.5 10 11.5Z" fill="white" fill-opacity="1"/>
<path fill-rule="evenodd" clip-rule="evenodd" d="M19 21C20.1 21 21 20.1 21 19V5C21 3.9 20.1 3 19 3H5C3.9 3 3 3.9 3 5V19C3 20.1 3.9 21 5 21H19ZM20 19C20 19.5477 19.5477 20 19 20H5C4.45228 20 4 19.5477 4 19V5C4 4.45228 4.45228 4 5 4H19C19.5477 4 20 4.45228 20 5V19Z" fill="white" fill-opacity="1"/>
</svg>
