<svg width="24" height="24" viewBox="0 0 24 24" fill="none" xmlns="http://www.w3.org/2000/svg">
<path d="M18.0608 12L12 1L5.93917 12C4.00635 15.5108 5.15205 19.9933 8.50169 22.0192C9.60366 22.6792 10.8106 23 11.9913 23C11.9913 23 11.9913 23 12 23C12 23 12 23 12.0087 23C13.1982 23 14.3963 22.6792 15.4983 22.0192C18.8479 19.9933 19.9936 15.5017 18.0608 12ZM6.70006 12.4583L12 2.83333L17.2999 12.4583C17.4836 12.7883 17.6235 13.1183 17.746 13.4667C16.8889 13.3842 16.0318 13.4575 15.2359 13.6867C14.064 14.0167 12.962 14.6675 12.0525 15.6392C11.1429 16.6108 10.0322 17.2617 8.86901 17.5917C8.02941 17.83 7.13734 17.9125 6.23653 17.8025C6.18405 17.6467 6.13158 17.4908 6.08785 17.3258C5.66805 15.6667 5.87795 13.9433 6.70006 12.4583Z" fill="white" fill-opacity="1"/>
</svg>
