<?xml version="1.0" encoding="utf-8"?>
<!-- Generator: Adobe Illustrator 23.0.3, SVG Export Plug-In . SVG Version: 6.00 Build 0)  -->
<svg version="1.1" id="Layer_1" xmlns="http://www.w3.org/2000/svg" xmlns:xlink="http://www.w3.org/1999/xlink" x="0px" y="0px"
	 viewBox="0 0 540 393" enable-background="new 0 0 540 393" xml:space="preserve">
<path id="path-1_1_" fill-rule="evenodd" clip-rule="evenodd" fill="#FFFFFF" d="M8,0h524c4.41827,0,8,3.58172,8,8v377
	c0,4.41827-3.58173,8-8,8H8c-4.41828,0-8-3.58173-8-8V8C0,3.58172,3.58172,0,8,0z"/>
<g id="Image-Placeholder" transform="translate(134.000000, 0.000000)">
	<g id="Mask">
		<circle fill-rule="evenodd" clip-rule="evenodd" fill="#F2F5F8" cx="136" cy="124" r="64"/>
	</g>
	<g id="Group-24" transform="translate(29.000000, 38.000000)">
		<path id="Path" fill-rule="evenodd" clip-rule="evenodd" fill="#CBD6E2" d="M138.2822,69.40344
			c-2.25945-0.88351-4.77945-0.2932-6.45557,1.54812l-23.38788,27.30308c-0.69223,0.75842-1.8239,0.85224-2.36057,0.46912
			l-11.4995-12.86575c-1.26389-0.98125-2.82334-1.38783-4.4139-1.16109c-1.5789,0.23457-2.96335,1.07899-3.79946,2.25962
			l-13.12505,15.57104c-1.38056,1.78267-1.62946,4.15175-0.64167,6.18072C73.5825,110.73727,75.59306,112,77.84084,112h58.3258
			c3.21613,0,5.83336-2.63101,5.83336-5.86406V74.86875C142,72.42931,140.54166,70.28696,138.2822,69.40344"/>
		<path fill-rule="evenodd" clip-rule="evenodd" fill="#CBD6E2" d="M78.5,73c3.59125,0,6.5-2.90875,6.5-6.5
			c0-3.59125-2.90875-6.5-6.5-6.5S72,62.90875,72,66.5C72,70.09125,74.90875,73,78.5,73"/>
	</g>
</g>
<path id="Rectangle-2" fill-rule="evenodd" clip-rule="evenodd" fill="#CBD6E2" d="M195,208h150c2.76141,0,5,2.23857,5,5
	s-2.23859,5-5,5H195c-2.76141,0-5-2.23857-5-5S192.23859,208,195,208z"/>
<path id="Rectangle-2-Copy" fill-rule="evenodd" clip-rule="evenodd" fill="#CBD6E2" d="M195,233h150c2.76141,0,5,2.23857,5,5
	s-2.23859,5-5,5H195c-2.76141,0-5-2.23857-5-5S192.23859,233,195,233z"/>
<circle id="Oval" fill-rule="evenodd" clip-rule="evenodd" fill="#CBD6E2" cx="387" cy="306" r="12"/>
<circle fill-rule="evenodd" clip-rule="evenodd" fill="#CBD6E2" cx="422" cy="306" r="12"/>
<circle id="Oval-Copy" fill-rule="evenodd" clip-rule="evenodd" fill="#CBD6E2" cx="456" cy="306" r="12"/>
<g id="Group">
	<path fill-rule="evenodd" clip-rule="evenodd" fill="#CBD6E2" d="M77,273h234c2.76141,0,5,2.23859,5,5s-2.23859,5-5,5H77
		c-2.76142,0-5-2.23859-5-5S74.23858,273,77,273z"/>
	<path fill-rule="evenodd" clip-rule="evenodd" fill="#CBD6E2" d="M77,298h234c2.76141,0,5,2.23859,5,5s-2.23859,5-5,5H77
		c-2.76142,0-5-2.23859-5-5S74.23858,298,77,298z"/>
	<path fill-rule="evenodd" clip-rule="evenodd" fill="#CBD6E2" d="M78,323h234c2.76141,0,5,2.23859,5,5s-2.23859,5-5,5H78
		c-2.76142,0-5-2.23859-5-5S75.23858,323,78,323z"/>
</g>
</svg>
