<?xml version="1.0" encoding="utf-8"?>
<!-- Generator: Adobe Illustrator 23.0.3, SVG Export Plug-In . SVG Version: 6.00 Build 0)  -->
<svg version="1.1" id="Layer_1" xmlns="http://www.w3.org/2000/svg" xmlns:xlink="http://www.w3.org/1999/xlink" x="0px" y="0px"
	 viewBox="0 0 540 287" enable-background="new 0 0 540 287" xml:space="preserve">
<g id="Template-1">
	<path fill-rule="evenodd" clip-rule="evenodd" fill="#FFFFFF" d="M8,0h524c4.41827,0,8,3.58172,8,8v271c0,4.41827-3.58173,8-8,8H8
		c-4.41828,0-8-3.58173-8-8V8C0,3.58172,3.58172,0,8,0z"/>
	<path id="Rectangle-2" fill-rule="evenodd" clip-rule="evenodd" fill="#CBD6E2" d="M240,68h150c2.76141,0,5,2.23858,5,5
		s-2.23859,5-5,5H240c-2.76143,0-5-2.23858-5-5S237.23857,68,240,68z"/>
	<g id="Image-Placeholder" transform="translate(60.000000, 60.000000)">
		<circle fill-rule="evenodd" clip-rule="evenodd" fill="#F2F5F8" cx="64" cy="64" r="64"/>
		<g id="Group-24" transform="translate(29.000000, 38.000000)">
			<path id="Path" fill-rule="evenodd" clip-rule="evenodd" fill="#CBD6E2" d="M66.2822,9.40345
				c-2.25945-0.88352-4.77946-0.2932-6.45558,1.54811L36.43875,38.25463c-0.69223,0.75842-1.8239,0.85225-2.36057,0.46913
				L22.57869,25.85801c-1.2639-0.98125-2.82335-1.38783-4.41391-1.16109c-1.5789,0.23456-2.96335,1.07899-3.79946,2.25962
				L1.24027,42.52758c-1.38056,1.78267-1.62945,4.15176-0.64167,6.18072C1.58249,50.73727,3.59306,52,5.84085,52h58.32579
				C67.38277,52,70,49.36899,70,46.13594V14.86875C70,12.4293,68.54166,10.28697,66.2822,9.40345"/>
			<path fill-rule="evenodd" clip-rule="evenodd" fill="#CBD6E2" d="M6.5,13c3.59125,0,6.5-2.90875,6.5-6.5S10.09125,0,6.5,0
				S0,2.90875,0,6.5S2.90875,13,6.5,13"/>
		</g>
	</g>
	<circle id="Oval" fill-rule="evenodd" clip-rule="evenodd" fill="#CBD6E2" cx="90" cy="214" r="12"/>
	<circle fill-rule="evenodd" clip-rule="evenodd" fill="#CBD6E2" cx="125" cy="214" r="12"/>
	<circle id="Oval-Copy" fill-rule="evenodd" clip-rule="evenodd" fill="#CBD6E2" cx="159" cy="214" r="12"/>
	<path id="Rectangle-2-Copy" fill-rule="evenodd" clip-rule="evenodd" fill="#CBD6E2" d="M240,96h150c2.76141,0,5,2.23858,5,5
		s-2.23859,5-5,5H240c-2.76143,0-5-2.23858-5-5S237.23857,96,240,96z"/>
	<path fill-rule="evenodd" clip-rule="evenodd" fill="#CBD6E2" d="M240,161h234c2.76141,0,5,2.23857,5,5s-2.23859,5-5,5H240
		c-2.76143,0-5-2.23857-5-5S237.23857,161,240,161z"/>
	<path fill-rule="evenodd" clip-rule="evenodd" fill="#CBD6E2" d="M240,189h234c2.76141,0,5,2.23857,5,5s-2.23859,5-5,5H240
		c-2.76143,0-5-2.23857-5-5S237.23857,189,240,189z"/>
	<path fill-rule="evenodd" clip-rule="evenodd" fill="#CBD6E2" d="M241,216h234c2.76141,0,5,2.23857,5,5s-2.23859,5-5,5H241
		c-2.76143,0-5-2.23857-5-5S238.23857,216,241,216z"/>
</g>
</svg>
