<svg width="24" height="24" viewBox="0 0 24 24" fill="none" xmlns="http://www.w3.org/2000/svg">
<path d="M9.7907 15.5949H4.54419L3.44651 18.8103H1L6.11628 5H8.22791L13.3535 18.8103H10.8977L9.7907 15.5949ZM5.20465 13.6599H9.13023L7.16744 7.93089L5.20465 13.6599Z" fill="white" fill-opacity="1"/>
<path d="M20.693 18.8103C20.5938 18.6143 20.507 18.2949 20.4326 17.8523C19.7132 18.6174 18.8326 19 17.7907 19C16.7798 19 15.955 18.706 15.3163 18.1179C14.6775 17.5298 14.3581 16.8026 14.3581 15.9363C14.3581 14.8424 14.755 14.0045 15.5488 13.4228C16.3488 12.8347 17.4899 12.5407 18.9721 12.5407H20.3581V11.8672C20.3581 11.336 20.2124 10.9124 19.9209 10.5962C19.6295 10.2737 19.186 10.1125 18.5907 10.1125C18.076 10.1125 17.6543 10.2453 17.3256 10.5108C16.9969 10.7701 16.8326 11.1021 16.8326 11.5068H14.5721C14.5721 10.944 14.755 10.4192 15.1209 9.93225C15.4868 9.43902 15.9829 9.0533 16.6093 8.77507C17.2419 8.49684 17.9457 8.35772 18.7209 8.35772C19.8992 8.35772 20.8388 8.66125 21.5395 9.26829C22.2403 9.86902 22.6 10.7164 22.6186 11.8103V16.439C22.6186 17.3622 22.7457 18.0989 23 18.6491V18.8103H20.693ZM18.2093 17.1504C18.6558 17.1504 19.0744 17.0397 19.4651 16.8184C19.862 16.5971 20.1597 16.2999 20.3581 15.9268V13.9919H19.1395C18.3023 13.9919 17.6729 14.1405 17.2512 14.4377C16.8295 14.7349 16.6186 15.1554 16.6186 15.6992C16.6186 16.1418 16.7612 16.4959 17.0465 16.7615C17.338 17.0208 17.7256 17.1504 18.2093 17.1504Z" fill="white" fill-opacity="1"/>
</svg>
